# xmcd
#
# Track frame offsets: 
#        150
#        16308
#        35133
#        67118
#        87632
#        108110
#        125675
#        143976
#        161137
#        173323
#        190950
#        215039
#
# Disc length: 3142 seconds
#
# Revision: 1
# Processed by: cddbd v1.5.2PL0 Copyright (c) Steve Scherf et al.
# Submitted via: ExactAudioCopy v1.3
#
DISCID=b10c440c
DTITLE=Various Artist - Chicago Blues Harmonica Project - Diamonds In
DTITLE=The Rough
DYEAR=2004
DGENRE=Blues
TTITLE0=Dusty Brown - I Got To Go
TTITLE1=Omar Coleman  - Jody's Got Your Girl And Gone
TTITLE2=Russ Green - How Many More Years
TTITLE3=Larry Cox - Mean Old World
TTITLE4=Harmonica Khan # 1 - Baby What You Want Me To Do
TTITLE5=Little Addison - Look On Yonder Wall
TTITLE6=Dusty Brown - He Don't Love You
TTITLE7=Larry Cox  - Goin' To New York
TTITLE8=Harmonica Khan # 1 - Next Time You See Me
TTITLE9=Russ Green - Everythings Gonna Be Alright
TTITLE10=Little Addison - Respect Me
TTITLE11=Omar Coleman  - You Don't Love Me
EXTD=
EXTT0=
EXTT1=
EXTT2=
EXTT3=
EXTT4=
EXTT5=
EXTT6=
EXTT7=
EXTT8=
EXTT9=
EXTT10=
EXTT11=
PLAYORDER=
